<svg width="106" height="39" viewBox="0 0 106 39" fill="none" xmlns="http://www.w3.org/2000/svg">
<path fill-rule="evenodd" clip-rule="evenodd" d="M8.56818 15.75C8.3548 15.75 8.18182 15.923 8.18182 16.1364V19.6316C5.28652 19.8766 2 22.6008 2 26.5682C2 30.5355 5.28652 32.3817 8.18182 32.5449V36.6136C8.18182 36.827 8.3548 37 8.56818 37H23.25C23.4634 37 23.6364 36.827 23.6364 36.6136V16.1364C23.6364 15.923 23.4634 15.75 23.25 15.75H8.56818ZM8.18182 31.5959V20.6172C8.17498 20.6223 8.16811 20.6275 8.16122 20.6326C6.6006 21.7993 3.80169 23.8918 3.98428 26.5682C3.98428 29.0193 6.62345 30.6607 8.18182 31.5959Z" fill="#FFDCD6"/>
<path d="M15.1364 16.9091C17.4545 17.1023 17.0038 23.7466 16.4886 30.0572" stroke="#4C5B5C" stroke-width="0.193182" stroke-linecap="round" stroke-linejoin="round"/>
<path d="M15.1364 29.6591H15.9091L16.2954 30.0454L16.6818 29.6591H19V34.2954H15.1364V29.6591Z" fill="#4C5B5C"/>
<path fill-rule="evenodd" clip-rule="evenodd" d="M15.9091 3C10.476 3 6.01292 7.15354 5.52208 12.4585C3.91541 12.8721 2.77274 13.9303 2.77274 15.1705C2.77274 16.7708 4.67553 18.0682 7.02274 18.0682C8.1426 18.0682 9.16131 17.7729 9.92047 17.2902C10.6796 17.7729 11.6983 18.0682 12.8182 18.0682C14.036 18.0682 15.1342 17.7189 15.9091 17.1593C16.684 17.7189 17.7822 18.0682 19 18.0682C20.1199 18.0682 21.1386 17.7729 21.8977 17.2902C22.6569 17.7729 23.6756 18.0682 24.7955 18.0682C27.1427 18.0682 29.0455 16.7708 29.0455 15.1705C29.0455 13.9303 27.9028 12.8721 26.2961 12.4585C25.8053 7.15354 21.3422 3 15.9091 3Z" fill="#AD7A71"/>
<path d="M33.404 29.78C34.82 29.78 35.768 28.892 35.768 27.452C35.768 26.96 35.648 26.744 35.588 26.744C35.48 26.744 35.18 27.932 33.884 27.932C32.744 27.932 32.192 26.96 32.192 25.796C32.192 24.788 32.636 23.156 33.872 23.156C34.844 23.156 34.796 24.044 35.072 24.044C35.516 24.044 35.78 23.348 35.78 22.988C35.78 22.304 35.024 21.74 33.98 21.74C31.616 21.74 30.572 24.08 30.572 26.144C30.572 27.896 31.412 29.78 33.404 29.78ZM37.4634 19.364C36.8034 19.364 36.7794 23.72 36.7794 24.68C36.7794 30.008 36.7794 29.6 37.1274 29.6H38.3154C38.4354 29.6 38.6634 29.6 38.6634 29.408C38.6634 29.06 38.3994 28.28 38.3994 25.88C38.3994 25.028 38.4234 23.156 39.6474 23.156C40.2354 23.156 40.5474 23.528 40.5474 25.388C40.5474 26.984 39.9474 29.36 39.9474 29.444C39.9474 29.636 40.2714 29.6 40.3794 29.6H41.6274C41.9994 29.6 42.1674 26.564 42.1674 25.412C42.1674 22.52 41.3634 21.74 40.2714 21.74C39.8754 21.74 39.5394 21.884 39.2634 22.028C38.9994 22.184 38.8074 22.292 38.7114 22.292C38.5074 22.292 38.5074 22.064 38.5074 21.92C38.5074 20.96 38.9634 19.784 38.9634 19.616C38.9634 19.496 38.8794 19.364 38.7714 19.364H37.4634ZM46.6787 27.236C46.6787 27.824 46.6547 28.184 45.9467 28.184C45.3107 28.184 44.7227 27.788 44.7227 27.116C44.7227 26.384 45.4667 25.784 46.1747 25.784C46.7507 25.784 46.6787 26.288 46.6787 26.708V27.236ZM43.1027 27.392C43.1027 28.112 43.3067 29.6 46.1987 29.6C47.2667 29.6 48.3947 29.576 48.3947 29.324C48.3947 28.916 48.2987 28.604 48.2987 28.076C48.2987 27.656 48.2747 24.104 48.0227 23.408C47.4107 21.728 45.7667 21.74 45.3827 21.74C44.2787 21.74 43.2827 22.316 43.2827 23.204C43.2827 23.72 43.7027 24.188 44.0867 24.188C44.3507 24.188 44.1707 23.156 45.3947 23.156C45.9227 23.156 46.5587 23.48 46.5587 24.092C46.5587 24.488 46.2827 24.548 45.9347 24.608C44.5907 24.836 43.1027 25.88 43.1027 27.392ZM50.9451 29.6C51.2211 29.6 51.5811 29.672 51.5811 29.288C51.5811 29.18 51.1131 27.32 51.1131 24.296C51.1131 22.988 51.2571 22.544 51.2571 22.1C51.2571 21.956 51.2451 21.92 50.7411 21.92H50.0811C49.6851 21.92 49.4931 21.524 49.4931 25.628C49.4931 29.852 49.5411 29.6 50.1291 29.6H50.9451ZM50.5491 20.984C51.0291 20.984 51.4731 20.708 51.4731 20.192C51.4731 19.676 51.0291 19.364 50.5491 19.364C50.0691 19.364 49.6251 19.676 49.6251 20.192C49.6251 20.708 50.0691 20.984 50.5491 20.984ZM55.2126 29.78C56.6286 29.78 57.5766 28.892 57.5766 27.452C57.5766 26.96 57.4566 26.744 57.3966 26.744C57.2886 26.744 56.9886 27.932 55.6926 27.932C54.5526 27.932 54.0006 26.96 54.0006 25.796C54.0006 24.788 54.4446 23.156 55.6806 23.156C56.6526 23.156 56.6046 24.044 56.8806 24.044C57.3246 24.044 57.5886 23.348 57.5886 22.988C57.5886 22.304 56.8326 21.74 55.7886 21.74C53.4246 21.74 52.3806 24.08 52.3806 26.144C52.3806 27.896 53.2206 29.78 55.2126 29.78ZM61.276 29.78C62.716 29.78 63.892 28.904 63.892 27.38C63.892 27.284 63.856 26.66 63.676 26.66C63.508 26.66 63.508 28.16 61.54 28.16C60.94 28.16 60.028 27.752 60.028 27.188C60.028 25.94 63.892 26.48 63.892 23.9C63.892 22.484 62.776 21.74 61.456 21.74C59.848 21.74 58.24 23.18 58.24 26.084C58.24 28.004 59.128 29.78 61.276 29.78ZM61.396 23.156C61.852 23.156 62.404 23.48 62.404 24.068C62.404 24.68 60.22 25.16 60.076 25.16C59.92 25.16 59.86 25.028 59.86 24.896C59.86 24.2 60.424 23.156 61.396 23.156ZM70.8571 29.78C72.2731 29.78 73.2211 28.892 73.2211 27.452C73.2211 26.96 73.1011 26.744 73.0411 26.744C72.9331 26.744 72.6331 27.932 71.3371 27.932C70.1971 27.932 69.6451 26.96 69.6451 25.796C69.6451 24.788 70.0891 23.156 71.3251 23.156C72.2971 23.156 72.2491 24.044 72.5251 24.044C72.9691 24.044 73.2331 23.348 73.2331 22.988C73.2331 22.304 72.4771 21.74 71.4331 21.74C69.0691 21.74 68.0251 24.08 68.0251 26.144C68.0251 27.896 68.8651 29.78 70.8571 29.78ZM75.8165 29.6C75.9485 29.6 76.2125 29.6 76.2245 29.408C76.2245 29.192 75.8165 28.184 75.8165 25.796C75.8165 25.076 75.8885 23.456 76.8965 23.456C77.7245 23.456 77.5565 24.26 77.7005 24.26C78.0605 24.26 78.7445 23.756 78.7445 22.916C78.7445 22.268 78.2405 21.74 77.6285 21.74C77.3045 21.74 77.0165 21.932 76.7645 22.112C76.5125 22.304 76.3085 22.496 76.1285 22.496C75.8885 22.496 75.8645 22.268 75.8405 22.088C75.8285 21.86 75.6125 21.92 75.4325 21.92H74.4365C74.1005 21.932 74.1965 22.676 74.1965 26C74.1965 29.972 74.4125 29.6 74.8565 29.6H75.8165ZM81.9596 29.78C83.3996 29.78 84.5756 28.904 84.5756 27.38C84.5756 27.284 84.5396 26.66 84.3596 26.66C84.1916 26.66 84.1916 28.16 82.2236 28.16C81.6236 28.16 80.7116 27.752 80.7116 27.188C80.7116 25.94 84.5756 26.48 84.5756 23.9C84.5756 22.484 83.4596 21.74 82.1396 21.74C80.5316 21.74 78.9236 23.18 78.9236 26.084C78.9236 28.004 79.8116 29.78 81.9596 29.78ZM82.0796 23.156C82.5356 23.156 83.0876 23.48 83.0876 24.068C83.0876 24.68 80.9036 25.16 80.7596 25.16C80.6036 25.16 80.5436 25.028 80.5436 24.896C80.5436 24.2 81.1076 23.156 82.0796 23.156ZM88.9483 27.236C88.9483 27.824 88.9243 28.184 88.2163 28.184C87.5803 28.184 86.9923 27.788 86.9923 27.116C86.9923 26.384 87.7363 25.784 88.4443 25.784C89.0203 25.784 88.9483 26.288 88.9483 26.708V27.236ZM85.3723 27.392C85.3723 28.112 85.5763 29.6 88.4683 29.6C89.5363 29.6 90.6643 29.576 90.6643 29.324C90.6643 28.916 90.5683 28.604 90.5683 28.076C90.5683 27.656 90.5443 24.104 90.2923 23.408C89.6803 21.728 88.0363 21.74 87.6523 21.74C86.5483 21.74 85.5523 22.316 85.5523 23.204C85.5523 23.72 85.9723 24.188 86.3563 24.188C86.6203 24.188 86.4403 23.156 87.6643 23.156C88.1923 23.156 88.8283 23.48 88.8283 24.092C88.8283 24.488 88.5523 24.548 88.2043 24.608C86.8603 24.836 85.3723 25.88 85.3723 27.392ZM93.3706 29.6C93.5026 29.6 93.7186 29.636 93.7186 29.432C93.7186 29.096 93.3826 28.64 93.3826 26.228C93.3826 24.44 93.7186 23.336 94.6186 23.336C95.6026 23.336 95.6026 25.028 95.6026 25.748C95.6026 26.888 95.1466 29.3 95.1466 29.48C95.1466 29.648 95.3386 29.6 95.5666 29.6H96.6466C97.0306 29.6 97.0906 29.588 97.0906 25.28C97.0906 23.3 97.4866 23.336 97.9066 23.336C98.3626 23.336 99.1786 23.576 99.1786 25.868C99.1786 27.872 98.7226 29.192 98.7226 29.408C98.7226 29.624 99.0586 29.6 99.1786 29.6H99.9946C100.343 29.6 100.799 30.008 100.799 26.348C100.799 24.812 100.847 21.92 98.6386 21.92C98.2066 21.92 97.8346 22.088 97.5346 22.256C97.2346 22.436 96.9946 22.472 96.8266 22.472C96.5266 22.472 96.1426 21.92 95.5546 21.92C95.0506 21.92 94.6906 22.052 94.4266 22.196C94.1626 22.328 93.9946 22.472 93.8506 22.472C93.7306 22.472 93.6106 22.388 93.6106 22.268C93.6106 22.1 93.7546 21.872 93.7546 21.728C93.7546 21.548 93.4906 21.536 93.2386 21.536C91.6066 21.536 91.7626 21.38 91.7626 26.432C91.7626 29.984 92.0146 29.6 92.4226 29.6H93.3706Z" fill="white"/>
</svg>
